<svg width="156" height="54" viewBox="0 0 156 54" fill="none" xmlns="http://www.w3.org/2000/svg">
<rect x="0.339996" width="155.67" height="54" rx="8" fill="#F2F2F7"/>
<g clip-path="url(#clip0_2_4053)">
<g clip-path="url(#clip1_2_4053)">
<path d="M72.3724 13.8665C77.1114 13.8665 81.8503 13.8832 86.5887 13.8554C87.89 13.8477 89.1913 13.8404 90.4927 13.8243C90.6037 13.8227 90.7137 13.8388 90.8241 13.8488C91.3532 13.8948 91.4909 14.3179 91.5969 14.7637C92.7162 19.451 92.3608 24.4432 90.3723 28.8517C89.842 30.027 89.1947 31.1341 88.4791 32.2011C87.9167 33.0399 87.3038 33.8411 86.6331 34.5994C86.133 35.1651 85.6072 35.7053 85.0493 36.21C83.9994 37.1599 82.8852 38.0265 81.5861 38.6217C80.8971 38.9376 80.1749 39.1352 79.4231 39.2407C78.6737 39.3462 77.9209 39.345 77.1691 39.3284C73.0142 39.2385 68.8593 39.3085 64.7044 39.2895C62.5537 39.2801 60.4024 39.2873 58.2516 39.2895C58.0268 39.2895 57.8053 39.2718 57.5932 39.2023C57.1524 39.0592 56.8853 38.6728 56.8604 38.1604C56.8531 38.0149 56.8554 37.8689 56.8554 37.7234C56.8554 30.268 56.8554 22.8126 56.8554 15.3577C56.8554 15.1445 56.8598 14.933 56.9014 14.7193C57.0019 14.208 57.4083 13.9032 57.9241 13.8721C58.1034 13.861 58.2838 13.866 58.4637 13.866C63.0999 13.866 67.7356 13.866 72.3718 13.8649L72.3724 13.8665Z" fill="#2F4653"/>
<path d="M91.4563 34.0898C91.7145 34.0199 91.9243 33.8722 92.1213 33.7145C92.9625 33.0428 93.5876 32.1928 94.1211 31.2668C96.0442 27.9268 97.1768 24.1795 97.3988 20.3133C97.4216 19.9196 97.4238 19.5271 97.436 19.1341C97.4377 19.0758 97.4227 19.0136 97.4738 18.9503C97.6264 18.9947 97.7641 19.0697 97.8885 19.1796C99.3769 20.4987 99.629 23.0036 99.4679 24.8551C99.086 29.2382 96.666 33.916 92.7804 36.1789C92.691 36.2312 92.6005 36.2817 92.5089 36.3305C91.9087 36.6509 91.2853 36.9024 90.6435 37.1178C90.5224 37.1583 90.4014 37.1994 90.2815 37.2399C90.8106 37.2105 91.5423 37.1183 92.3712 36.8457C94.5874 36.1173 96.3529 34.4734 97.5787 32.5276C97.8801 32.049 98.1505 31.5538 98.4148 31.0542C98.4309 31.0242 98.447 30.9926 98.488 30.9837C98.5369 30.9847 98.5569 31.0236 98.5736 31.062C99.1893 32.4843 99.0305 33.9427 98.1628 35.228C96.4545 37.7568 92.8448 39.2663 89.8596 39.2785C87.1082 39.2896 84.3573 39.2862 81.6059 39.2857C81.5193 39.2857 81.3877 39.3312 81.3638 39.2091C81.3382 39.0791 81.4787 39.0947 81.5592 39.0581C85.7336 37.1388 88.892 33.7906 90.9505 29.7018C92.7393 26.1486 93.6381 22.127 93.2878 18.1497C93.1757 16.8756 92.9391 15.6121 92.5755 14.3857C92.5539 14.3118 92.5233 14.2397 92.5089 14.1642C92.4589 13.8999 92.5372 13.8333 92.8075 13.8599C93.4832 13.926 94.0795 14.1764 94.6107 14.5944C95.6162 15.3855 96.002 16.8201 96.234 18.0259C96.6682 20.2844 96.2247 22.7859 95.6966 24.9955C95.01 27.8713 93.8508 30.6817 92.1791 33.1272C92.0009 33.3881 91.7949 33.6296 91.6034 33.8805C91.5518 33.9483 91.5051 34.0194 91.4563 34.0888V34.0898Z" fill="url(#paint0_linear_2_4053)"/>
<path d="M67.6668 24.6065C67.6623 24.2518 67.5524 23.8949 67.2393 23.6955C66.9345 23.5018 66.5292 23.5057 66.2894 23.8004C66.27 23.8243 66.2284 23.8648 66.2405 23.8998C66.2528 23.9348 66.3283 23.9264 66.3599 23.9426C66.4143 23.9698 66.4359 24.0241 66.4343 24.0825C66.4321 24.1502 66.4315 24.7969 66.4287 25.6886C65.6443 25.6842 64.8593 25.6791 64.0748 25.6747C64.0598 25.4799 64.0543 25.2611 64.0681 25.0235C64.0809 24.8042 64.1092 24.586 64.152 24.3706C64.1709 24.2762 64.1925 24.1824 64.2169 24.0897C64.2436 23.9876 64.3174 23.862 64.3096 23.755C64.3085 23.7405 64.3052 23.7261 64.2963 23.715C64.2752 23.6888 64.2347 23.6933 64.2025 23.7017C64.0026 23.7527 63.8083 23.8593 63.6551 23.9975C63.6079 24.0397 63.4819 24.1596 63.3681 24.3639C63.0661 24.9047 63.0422 25.6708 63.0422 25.6708C63.0266 26.166 63.0072 27.1698 63.5352 28.2119C63.5352 28.2119 63.9049 28.9425 64.434 29.1224C64.5384 29.1579 64.5667 29.1345 64.5756 29.1224C64.6167 29.0696 64.5284 28.9785 64.5023 28.938C64.454 28.8636 64.4129 28.7848 64.3774 28.7031C64.3041 28.5349 64.2552 28.3567 64.2191 28.1774C64.1087 27.6311 64.0371 27.0782 64.0526 26.5202H66.4287V28.6171C66.4287 28.756 66.4854 28.8897 66.6136 28.9552C66.6907 28.9946 66.7785 29.0085 66.8645 29.0191C67.015 29.038 67.1688 29.0479 67.3176 29.0191C67.4047 29.0024 67.4919 28.9708 67.5568 28.9102C67.6618 28.8131 67.6634 28.6809 67.6634 28.5483C67.6634 27.4951 67.6735 26.442 67.6718 25.3888C67.6718 25.1273 67.6696 24.8664 67.6668 24.6049V24.6065Z" fill="url(#paint1_linear_2_4053)"/>
<path d="M64.4113 29.3846C63.4525 29.1043 63.0783 28.0883 62.8735 27.2073C62.8291 27.0152 62.7863 26.8259 62.7608 26.6299C62.6842 26.0376 62.6875 25.3863 62.8796 24.8145C62.733 24.8473 62.667 24.9733 62.5815 25.0754C62.2689 25.4485 62.2445 25.8843 62.2295 26.3174C62.194 27.3345 62.5654 28.0578 62.6481 28.2133C62.8346 28.5625 63.0378 28.7923 63.0978 28.8583C63.311 29.0943 63.5253 29.2581 63.6896 29.3669C63.5591 29.3347 63.3748 29.2742 63.1777 29.1526C62.9951 29.0399 62.8646 28.9144 62.7791 28.8184C62.6553 28.6602 62.5681 28.5208 62.5115 28.422C62.3588 28.1577 62.169 27.8285 62.0724 27.3872C62.0452 27.2634 62.0268 27.1373 61.978 27.1324C61.9075 27.1251 61.8281 27.3761 61.8109 27.4299C61.7554 27.6048 61.7415 27.7663 61.7421 27.8519C61.7459 28.185 61.9958 28.8328 62.5926 29.2725C62.5926 29.2725 63.1144 29.6567 64.0072 29.6862C64.0438 29.6872 64.2598 29.6822 64.4202 29.5673C64.499 29.5107 64.5512 29.4241 64.4113 29.3836V29.3846Z" fill="url(#paint2_linear_2_4053)"/>
<path d="M62.8795 24.8105L62.8782 24.8145L62.8822 24.8132L62.8795 24.8105Z" fill="url(#paint3_linear_2_4053)"/>
<path d="M62.8801 24.8119L62.8829 24.8148L62.8944 24.7988L62.8801 24.8119Z" fill="url(#paint4_linear_2_4053)"/>
<path d="M79.9365 24.4809C79.9403 24.3588 79.9365 24.1779 79.8927 23.9602C79.8882 23.9369 79.8826 23.8814 79.8543 23.817C79.8394 23.782 79.7972 23.6893 79.6989 23.626C79.6462 23.5927 79.5873 23.5727 79.5251 23.5733C79.4818 23.5733 79.4385 23.5765 79.3958 23.5765C79.3358 23.5765 79.2759 23.5783 79.2159 23.5788C79.0993 23.5799 78.9827 23.5771 78.8667 23.5816C78.7623 23.5854 78.6646 23.621 78.5902 23.6993C78.5019 23.7919 78.4314 23.9241 78.3148 24.2072C78.2954 24.2538 78.2799 24.2938 78.2693 24.321C78.2249 24.4171 77.5981 25.7762 77.3611 26.1692C77.3439 26.1987 77.305 26.2614 77.2573 26.2591C77.2089 26.2614 77.1707 26.1987 77.1534 26.1692C76.9169 25.7756 76.2895 24.4171 76.2451 24.321C76.2346 24.2938 76.219 24.2544 76.1996 24.2072C76.083 23.9241 76.0125 23.7919 75.9243 23.6993C75.8504 23.621 75.7527 23.5854 75.6478 23.5816C75.5312 23.5777 75.4146 23.5799 75.2986 23.5788C75.2387 23.5788 75.1787 23.5771 75.1187 23.5765C75.0754 23.5765 75.0321 23.5738 74.9894 23.5733C74.9272 23.5733 74.8689 23.5927 74.8156 23.626C74.7173 23.6893 74.6751 23.782 74.6601 23.817C74.6318 23.8814 74.6262 23.9369 74.6218 23.9602C74.5785 24.1783 74.5741 24.3594 74.578 24.4809C74.5325 25.8794 74.4869 27.2768 74.4409 28.6752C74.4425 28.6986 74.4469 28.7308 74.4597 28.7669C74.5313 28.9718 74.7911 29.0723 74.991 29.075C75.1931 29.0778 75.4346 28.9817 75.5201 28.7963C75.5212 28.7941 75.5367 28.758 75.5451 28.718C75.6045 28.4332 75.6389 26.1398 75.6517 25.1411C76.1991 26.2625 76.6271 27.1008 76.8253 27.4706C76.8653 27.5466 76.9513 27.6993 77.1095 27.7514C77.1551 27.767 77.2056 27.7754 77.2573 27.7759C77.3088 27.7759 77.3594 27.767 77.4049 27.7514C77.5631 27.6993 77.6486 27.5466 77.6891 27.4706C77.8868 27.1008 78.3154 26.2625 78.8628 25.1411C78.8756 26.1404 78.9099 28.4332 78.9694 28.718C78.9777 28.758 78.9933 28.7941 78.9943 28.7963C79.0799 28.9817 79.3214 29.0778 79.5234 29.075C79.7239 29.0723 79.9831 28.9718 80.0548 28.7669C80.0675 28.7308 80.0719 28.6986 80.0736 28.6752C80.0281 27.2768 79.9825 25.8794 79.9365 24.4809Z" fill="url(#paint5_linear_2_4053)"/>
<path d="M73.3499 23.7412C73.2362 23.5973 73.0418 23.5918 72.8547 23.5868C72.6776 23.5818 72.4523 23.5757 72.3112 23.7323C72.2329 23.8194 72.2113 23.9221 72.2046 23.9843C72.2013 25.0164 72.1979 26.0479 72.1947 27.08C72.1963 27.1811 72.1863 27.3715 72.0841 27.5808C71.9765 27.8017 71.8238 27.9272 71.7849 27.9577C71.7849 27.9577 71.5251 28.1631 71.1853 28.1903C71.1514 28.1931 71.1154 28.1942 71.1154 28.1942C71.1065 28.1942 71.0976 28.1942 71.0888 28.1948C71.0799 28.1948 71.071 28.1948 71.0621 28.1942C71.0621 28.1942 71.0266 28.1931 70.9921 28.1903C70.6523 28.1626 70.3925 27.9577 70.3925 27.9577C70.3531 27.9266 70.201 27.8017 70.0933 27.5808C69.9912 27.3715 69.9811 27.1811 69.9829 27.08C69.9795 26.0479 69.9762 25.0164 69.9728 23.9843C69.9662 23.9221 69.9451 23.8194 69.8662 23.7323C69.7253 23.5757 69.4998 23.5818 69.3227 23.5868C69.1362 23.5918 68.9413 23.5973 68.8275 23.7412C68.7381 23.8539 68.7453 23.9932 68.7526 24.0537V27.2937C68.7526 27.5952 68.8392 27.9943 69.1284 28.3736C69.4532 28.7994 69.9145 28.9892 70.0566 29.042C70.3448 29.1491 70.6285 29.1791 70.7151 29.1874C70.8655 29.2024 70.9938 29.2029 71.0888 29.2001C71.1837 29.2029 71.3119 29.2024 71.4623 29.1874C71.5489 29.1785 71.8327 29.1486 72.1208 29.042C72.2629 28.9892 72.7242 28.7994 73.049 28.3736C73.3377 27.9943 73.4249 27.5952 73.4249 27.2937V24.0537C73.4321 23.9932 73.4393 23.8539 73.3499 23.7412Z" fill="url(#paint6_linear_2_4053)"/>
<path d="M86.2062 25.2982C86.0496 24.778 85.7298 24.3194 85.2957 23.993C84.8032 23.6232 84.1926 23.4295 83.5791 23.415C82.9656 23.4295 82.3549 23.6232 81.8625 23.993C81.4278 24.3194 81.1081 24.778 80.952 25.2982C80.5051 26.7916 81.1774 28.697 82.7863 29.1183C83.0461 29.186 83.3132 29.2149 83.5791 29.2078C83.8456 29.2149 84.1126 29.186 84.3719 29.1183C85.9807 28.697 86.6531 26.7916 86.2062 25.2982ZM85.0114 26.9653C84.8433 27.6727 84.3735 28.4327 83.5785 28.441C82.7835 28.4327 82.3139 27.6727 82.1456 26.9653C81.9835 26.2842 82.0135 25.4819 82.3949 24.874C82.6592 24.4527 83.1089 24.2034 83.5779 24.2001C84.0477 24.2034 84.4967 24.4533 84.761 24.874C85.1425 25.4819 85.1724 26.2842 85.0103 26.9653H85.0114Z" fill="url(#paint7_linear_2_4053)"/>
</g>
</g>
<defs>
<linearGradient id="paint0_linear_2_4053" x1="79.3474" y1="30.4507" x2="100.012" y2="24.1073" gradientUnits="userSpaceOnUse">
<stop offset="0.33" stop-color="#9C8837"/>
<stop offset="0.56" stop-color="#F7E59E"/>
<stop offset="0.6" stop-color="#F0DE96"/>
<stop offset="0.67" stop-color="#DECB80"/>
<stop offset="0.75" stop-color="#C0AC5D"/>
<stop offset="0.79" stop-color="#B39F4D"/>
</linearGradient>
<linearGradient id="paint1_linear_2_4053" x1="66.5298" y1="26.9616" x2="62.7241" y2="24.0819" gradientUnits="userSpaceOnUse">
<stop offset="0.33" stop-color="#9C8837"/>
<stop offset="0.56" stop-color="#F7E59E"/>
<stop offset="0.6" stop-color="#F0DE96"/>
<stop offset="0.67" stop-color="#DECB80"/>
<stop offset="0.75" stop-color="#C0AC5D"/>
<stop offset="0.79" stop-color="#B39F4D"/>
</linearGradient>
<linearGradient id="paint2_linear_2_4053" x1="65.1081" y1="28.8389" x2="61.3024" y2="25.9593" gradientUnits="userSpaceOnUse">
<stop offset="0.33" stop-color="#9C8837"/>
<stop offset="0.56" stop-color="#F7E59E"/>
<stop offset="0.6" stop-color="#F0DE96"/>
<stop offset="0.67" stop-color="#DECB80"/>
<stop offset="0.75" stop-color="#C0AC5D"/>
<stop offset="0.79" stop-color="#B39F4D"/>
</linearGradient>
<linearGradient id="paint3_linear_2_4053" x1="66.881" y1="27.8411" x2="62.3406" y2="24.4047" gradientUnits="userSpaceOnUse">
<stop offset="0.33" stop-color="#9C8837"/>
<stop offset="0.56" stop-color="#F7E59E"/>
<stop offset="0.6" stop-color="#F0DE96"/>
<stop offset="0.67" stop-color="#DECB80"/>
<stop offset="0.75" stop-color="#C0AC5D"/>
<stop offset="0.79" stop-color="#B39F4D"/>
</linearGradient>
<linearGradient id="paint4_linear_2_4053" x1="66.3309" y1="27.412" x2="62.4228" y2="24.4538" gradientUnits="userSpaceOnUse">
<stop offset="0.33" stop-color="#9C8837"/>
<stop offset="0.56" stop-color="#F7E59E"/>
<stop offset="0.6" stop-color="#F0DE96"/>
<stop offset="0.67" stop-color="#DECB80"/>
<stop offset="0.75" stop-color="#C0AC5D"/>
<stop offset="0.79" stop-color="#B39F4D"/>
</linearGradient>
<linearGradient id="paint5_linear_2_4053" x1="80.6271" y1="28.1346" x2="74.7128" y2="24.9978" gradientUnits="userSpaceOnUse">
<stop offset="0.33" stop-color="#9C8837"/>
<stop offset="0.56" stop-color="#F7E59E"/>
<stop offset="0.6" stop-color="#F0DE96"/>
<stop offset="0.67" stop-color="#DECB80"/>
<stop offset="0.75" stop-color="#C0AC5D"/>
<stop offset="0.79" stop-color="#B39F4D"/>
</linearGradient>
<linearGradient id="paint6_linear_2_4053" x1="74.0006" y1="27.8455" x2="68.0864" y2="24.1426" gradientUnits="userSpaceOnUse">
<stop offset="0.33" stop-color="#9C8837"/>
<stop offset="0.56" stop-color="#F7E59E"/>
<stop offset="0.6" stop-color="#F0DE96"/>
<stop offset="0.67" stop-color="#DECB80"/>
<stop offset="0.75" stop-color="#C0AC5D"/>
<stop offset="0.79" stop-color="#B39F4D"/>
</linearGradient>
<linearGradient id="paint7_linear_2_4053" x1="87.7506" y1="28.7486" x2="80.3969" y2="24.4804" gradientUnits="userSpaceOnUse">
<stop offset="0.33" stop-color="#9C8837"/>
<stop offset="0.56" stop-color="#F7E59E"/>
<stop offset="0.6" stop-color="#F0DE96"/>
<stop offset="0.67" stop-color="#DECB80"/>
<stop offset="0.75" stop-color="#C0AC5D"/>
<stop offset="0.79" stop-color="#B39F4D"/>
</linearGradient>
<clipPath id="clip0_2_4053">
<rect width="46" height="28" fill="white" transform="translate(55.17 13)"/>
</clipPath>
<clipPath id="clip1_2_4053">
<rect width="46" height="28" fill="white" transform="translate(55.17 13)"/>
</clipPath>
</defs>
</svg>
