<svg width="157" height="54" viewBox="0 0 157 54" fill="none" xmlns="http://www.w3.org/2000/svg">
<rect x="0.669983" width="155.67" height="54" rx="8" fill="#F2F2F7"/>
<g clip-path="url(#clip0_2_4040)">
<g clip-path="url(#clip1_2_4040)">
<g clip-path="url(#clip2_2_4040)">
<mask id="mask0_2_4040" style="mask-type:luminance" maskUnits="userSpaceOnUse" x="44" y="17" width="69" height="20">
<path d="M112.5 17H44.5V37H112.5V17Z" fill="white"/>
</mask>
<g mask="url(#mask0_2_4040)">
<path d="M64.0844 29.4996C64.0844 29.4996 63.539 30.652 61.6129 30.652C61.1515 30.6714 60.697 30.5424 60.309 30.2861C59.9629 30.0157 59.7794 29.5845 59.8144 29.1444C59.7689 28.5488 60.0975 27.992 60.6324 27.7357C61.4102 27.4353 62.2421 27.2904 63.0793 27.3204C63.5652 27.2444 64.0214 27.5855 64.0948 28.0822C64.1053 28.1281 64.1053 28.1723 64.1053 28.2218L64.0844 29.4996ZM66.9578 23.0715C66.8529 22.8206 66.7096 22.5855 66.5313 22.3752C66.3531 22.1843 66.1503 22.0146 65.9266 21.8786C65.6889 21.7124 65.4319 21.5728 65.168 21.4579C64.8954 21.3519 64.614 21.267 64.3308 21.2016C64.004 21.1256 63.6771 21.0814 63.3398 21.0567C62.9885 21.0214 62.5865 21.0019 62.146 21.0019C59.1974 21.0019 57.5229 21.9439 57.1122 23.8227C57.0475 24.0878 57.2066 24.3582 57.474 24.4289C57.4985 24.4342 57.5229 24.4395 57.5492 24.4395H59.3617C59.8563 24.4395 59.8563 24.2893 60.0451 23.858C60.129 23.623 60.2723 23.418 60.4716 23.2677C60.933 22.9673 61.4818 22.8224 62.0324 22.8612C62.548 22.8117 63.0636 22.9372 63.4883 23.2271C63.8204 23.5381 64.0127 23.9641 64.0284 24.4201C64.0284 25.0369 63.8397 25.4469 63.0828 25.4469C61.2738 25.3816 59.3372 25.5866 58.2465 26.2228C57.1524 26.8998 56.497 28.1122 56.5372 29.4095C56.5214 29.9061 56.621 30.401 56.829 30.8517C57.0178 31.2423 57.2992 31.5834 57.6418 31.8485C58.0036 32.149 58.4196 32.3699 58.8705 32.5007C59.3757 32.6368 59.8965 32.7057 60.4209 32.7004C61.1253 32.711 61.8279 32.6103 62.5026 32.3999C63.0968 32.1543 63.6614 31.8344 64.177 31.4438V31.7937C64.177 32.1401 64.2819 32.4494 64.6716 32.4494H66.7725C67.199 32.4494 67.2969 32.1437 67.2969 31.7637V25.2207C67.2969 24.8142 67.2672 24.4042 67.213 24.003C67.1658 23.6831 67.0819 23.372 66.9578 23.0715ZM69.8715 34.3847C69.7072 34.3794 69.5446 34.3653 69.3803 34.3441C69.1776 34.314 68.7913 34.3441 68.7913 34.694V36.1928C68.7913 36.769 69.0692 36.8096 69.2125 36.8485C69.6687 36.9492 70.1389 36.9987 70.6056 36.9987C71.1596 37.0146 71.7102 36.898 72.2101 36.6629C72.6715 36.4279 73.0823 36.1027 73.4144 35.7015C73.7902 35.2649 74.1083 34.7842 74.36 34.2628C74.6379 33.7114 74.8948 33.0998 75.143 32.43L75.4296 31.6329C74.8563 32.2091 72.3237 34.6251 69.8715 34.3847ZM78.4622 21.2776H76.5343C76.1585 21.2529 75.8159 21.5074 75.7268 21.8839L73.4878 28.121C73.4878 28.121 71.511 22.4353 71.3624 21.9987C71.2733 21.5781 70.9115 21.2776 70.4902 21.2723H68.7162C68.0817 21.2723 68.0817 21.7725 68.1656 21.9687C68.2495 22.1649 70.6772 28.8881 71.6281 31.4632C71.7766 31.7831 71.8815 32.1189 71.9409 32.4653C71.8763 32.8064 71.7469 33.1316 71.5651 33.4215C71.49 33.547 71.4061 33.6619 71.317 33.7714C73.1452 33.22 75.2706 31.2158 76.335 29.0525C77.4152 26.0567 78.8327 22.0588 78.8974 21.8538C78.969 21.5392 78.969 21.2776 78.4622 21.2776ZM47.7595 29.9644C46.5412 29.5191 45.4313 28.8121 44.505 27.8948V31.8185C44.4648 32.1242 44.6728 32.4088 44.9751 32.4494C44.9856 32.4494 44.9909 32.4547 44.9996 32.4547H47.2334C47.8276 32.4547 47.7577 31.8132 47.7577 31.8132V29.9644H47.7595ZM52.7443 23.1511C52.5765 23.4515 52.3179 23.6919 52.0102 23.8474C51.6729 24.0083 51.3163 24.1037 50.9458 24.1338C50.5403 24.1832 50.133 24.2098 49.7275 24.2098H48.3013C47.964 24.2098 47.7507 23.9288 47.7507 23.5187V20.1659C47.7315 19.8902 47.9395 19.6551 48.2122 19.6357C48.2419 19.6357 48.2716 19.6357 48.3013 19.641H49.7275C50.189 19.641 50.6242 19.6516 51.0314 19.6817C51.3985 19.6976 51.755 19.7877 52.0871 19.9415C52.3895 20.0776 52.6464 20.3073 52.8107 20.5972C53.0048 20.9878 53.0887 21.4243 53.0642 21.8591C53.0747 22.3098 52.9646 22.7516 52.7478 23.1476V23.1511H52.7443ZM55.6423 18.9782C55.4045 18.5876 55.0917 18.2465 54.7264 17.9761C54.3593 17.7198 53.9538 17.5254 53.5274 17.3893C53.0624 17.2338 52.5853 17.1331 52.1011 17.0836C51.5313 17.0288 50.9615 16.9987 50.3865 17.004H45.4453C44.9699 16.9581 44.5539 17.3098 44.5085 17.7852C44.505 17.7958 44.505 17.8064 44.505 17.8153V17.8559V25.9772C45.1936 27.4653 46.328 28.6884 47.756 29.4749V27.8471C47.7105 27.3204 48.0933 26.8556 48.6177 26.8043H50.1033C52.1256 26.8043 53.6707 26.3784 54.7316 25.5212C55.7961 24.664 56.3361 23.3968 56.3571 21.7142C56.3571 21.2281 56.3029 20.7421 56.1893 20.272C56.074 19.8142 55.8904 19.3794 55.6423 18.9782Z" fill="#323232"/>
<path d="M112.13 25.2924C112.625 26.0983 112.625 27.1252 112.13 27.9329C111.635 28.6946 108.938 31.6003 108.052 32.537C107.28 33.3429 106.24 34.1648 105.203 34.1648H83.8044C80.9064 34.1648 80.7334 33.1626 80.7334 30.9375V21.8441C80.7334 19.5589 81.4028 18.8926 83.3849 18.8926H105.254C106.28 18.8926 107.191 19.4228 108.222 20.4903C109.117 21.4094 111.773 24.7515 112.13 25.2924Z" fill="#53BDBD"/>
<path d="M85.5921 22.4064V22.3516C85.5921 22.0617 85.5921 21.7754 85.0974 21.7754H83.3038C82.8825 21.7754 82.8633 22.0052 82.8633 22.3622V24.7605C83.5713 23.7637 84.5083 22.9578 85.5921 22.4064Z" fill="white"/>
<path d="M97.611 31.0845V30.959V25.1672C97.611 22.7476 96.5501 21.5352 94.4352 21.5352C93.8462 21.5405 93.2711 21.7154 92.7747 22.0353C92.2242 22.3817 91.74 22.8112 91.3275 23.3132C91.1388 22.7723 90.777 22.3057 90.2963 22C89.751 21.6942 89.1322 21.5493 88.5135 21.574C87.5976 21.5793 86.7097 21.8851 85.9861 22.4507C85.8271 22.6115 82.8557 24.9498 82.8557 27.3906V31.0933C82.8557 31.2082 82.7963 31.6589 83.2962 31.6589H85.1594C85.7397 31.6589 85.6837 31.2736 85.6837 31.1127V25.1177C85.9966 24.6917 86.6346 23.679 87.685 23.679C88.0276 23.649 88.3632 23.8045 88.5572 24.0944C88.7652 24.5203 88.8596 24.9957 88.8246 25.4729V30.1477V31.1039C88.8246 31.2188 88.7652 31.6695 89.2598 31.6695H91.1073C91.6823 31.6695 91.6282 31.2842 91.6282 31.1233V30.9926V25.0965C91.9655 24.6705 92.6192 23.6578 93.6294 23.6578C93.9755 23.6278 94.3129 23.7886 94.5156 24.0731C94.7288 24.4991 94.8232 24.9745 94.7883 25.4517V30.1265V31.0827C94.7883 31.1976 94.7288 31.6483 95.2287 31.6483H97.0919C97.681 31.62 97.611 31.2382 97.611 31.0845Z" fill="white"/>
<path d="M103.577 23.5035C102.443 23.5035 101.679 24.3006 101.511 25.6085H105.564C105.459 24.4596 104.846 23.5035 103.577 23.5035ZM107.887 28.7332C107.239 30.4971 105.529 31.6336 103.666 31.5346C100.817 31.5346 98.9189 29.5763 98.9189 26.6353C98.9189 23.6997 100.896 21.6406 103.566 21.6406C106.237 21.6406 108.016 23.5088 108.13 26.5257C108.13 26.9057 108.036 27.2468 107.555 27.2468H101.516C101.556 28.8605 102.318 29.746 103.687 29.746C104.425 29.7654 105.11 29.3448 105.437 28.6784C105.566 28.4876 105.779 28.378 106.006 28.3833H107.562C107.735 28.3727 107.878 28.5088 107.889 28.6837C107.889 28.7032 107.889 28.7297 107.884 28.7544L107.887 28.7332Z" fill="white"/>
</g>
</g>
</g>
</g>
<defs>
<clipPath id="clip0_2_4040">
<rect width="68" height="20" fill="white" transform="translate(44.5 17)"/>
</clipPath>
<clipPath id="clip1_2_4040">
<rect width="68" height="20" fill="white" transform="translate(44.5 17)"/>
</clipPath>
<clipPath id="clip2_2_4040">
<rect width="68" height="20" fill="white" transform="translate(44.5 17)"/>
</clipPath>
</defs>
</svg>
