<svg width="156" height="54" viewBox="0 0 156 54" fill="none" xmlns="http://www.w3.org/2000/svg">
<rect width="155.67" height="54" rx="8" fill="#F2F2F7"/>
<g clip-path="url(#clip0_2_4027)">
<g clip-path="url(#clip1_2_4027)">
<g clip-path="url(#clip2_2_4027)">
<mask id="mask0_2_4027" style="mask-type:luminance" maskUnits="userSpaceOnUse" x="43" y="17" width="69" height="20">
<path d="M111.509 17.1426H43.33V36.8569H111.509V17.1426Z" fill="white"/>
</mask>
<g mask="url(#mask0_2_4027)">
<path fill-rule="evenodd" clip-rule="evenodd" d="M53.0967 17.1426C51.1647 17.1426 49.277 17.7206 47.6705 18.8034C46.064 19.8863 44.8121 21.4259 44.0732 23.2269C43.3343 25.0288 43.1409 27.0105 43.5176 28.9225C43.8943 30.8344 44.8249 32.5908 46.1902 33.9695C47.5563 35.3482 49.2966 36.2866 51.1911 36.6668C53.0856 37.0469 55.0492 36.8517 56.8346 36.106C58.6191 35.3603 60.1446 34.0968 61.2176 32.4756C62.2905 30.8543 62.8632 28.9492 62.8632 26.9993C62.8632 24.3846 61.8346 21.8774 60.0023 20.0291C58.1717 18.1807 55.6874 17.1426 53.0967 17.1426ZM51.9743 20.5666C52.3441 20.5339 52.7174 20.5176 53.0967 20.5176C53.4759 20.5176 53.8492 20.5176 54.219 20.5666V25.8313H51.9683L51.9743 20.5666ZM59.387 27.4345C59.387 29.1186 58.7239 30.733 57.5444 31.9234C56.365 33.1137 54.7645 33.7829 53.0967 33.7829C51.4288 33.7829 49.8283 33.1137 48.6489 31.9234C47.4694 30.733 46.8063 29.1177 46.8063 27.4345V23.6337C47.6236 23.3594 48.458 23.1426 49.3051 22.9844V27.4113C49.3051 30.5953 50.6397 32.2605 53.0967 32.2605C55.5537 32.2605 56.8917 30.5953 56.8917 27.4113V22.9844C57.7379 23.1418 58.5714 23.3585 59.387 23.6337V27.4345Z" fill="#7000FF"/>
<path d="M78.2331 22.9893H85.7616V24.9142L81.2014 29.0495V29.0822H85.9194V31.0071H78.0081V29.0822L82.5684 24.9468V24.9142H78.2331V22.9893Z" fill="#7000FF"/>
<path d="M74.0646 27.3845V22.9834H76.351V27.7415C76.351 30.7724 73.9487 31.1655 72.0482 31.1655C70.1477 31.1655 67.7418 30.9153 67.7418 27.7415V22.9834H70.0216V27.3845C70.0216 28.7805 70.9351 29.1142 72.0473 29.1142C73.1595 29.1142 74.0646 28.7993 74.0646 27.3845Z" fill="#7000FF"/>
<path d="M94.0305 22.9834V27.3845C94.0305 28.7993 93.1271 29.1142 92.0141 29.1142C90.9011 29.1142 89.9943 28.7899 89.9943 27.3845V22.9834H87.7112V27.7415C87.7112 30.9161 90.117 31.1655 92.0176 31.1655C93.918 31.1655 96.3171 30.7724 96.3171 27.7415V22.9834H94.0305Z" fill="#7000FF"/>
<path d="M104.84 23.6961C105.634 23.1199 106.59 22.8171 107.567 22.8326C110.433 22.8326 111.507 24.6792 111.507 26.3538V31.0113H109.237V26.5775C109.237 25.8567 108.889 24.8831 107.629 24.8831C106.584 24.8831 106.037 25.6296 106.037 26.3143V31.0104H103.731V26.3143C103.731 25.6296 103.168 24.8831 102.122 24.8831C100.859 24.8831 100.514 25.8438 100.514 26.5775V31.0113H98.2278V26.3538C98.2278 24.6792 99.2019 22.8326 102.068 22.8326C103.059 22.8206 104.028 23.1224 104.84 23.6961Z" fill="#7000FF"/>
</g>
</g>
</g>
</g>
<defs>
<clipPath id="clip0_2_4027">
<rect width="69" height="20" fill="white" transform="translate(43.33 17)"/>
</clipPath>
<clipPath id="clip1_2_4027">
<rect width="69" height="20" fill="white" transform="translate(43.33 17)"/>
</clipPath>
<clipPath id="clip2_2_4027">
<rect width="69" height="19.7143" fill="white" transform="translate(43.33 17.1426)"/>
</clipPath>
</defs>
</svg>
